<svg xmlns="http://www.w3.org/2000/svg" viewBox="0 0 1200 630">
  <defs>
    <linearGradient id="bgGradient" x1="0%" y1="0%" x2="100%" y2="100%">
      <stop offset="0%" style="stop-color:#0f0d0b"/>
      <stop offset="100%" style="stop-color:#1a1612"/>
    </linearGradient>
    <linearGradient id="textGradient" x1="0%" y1="0%" x2="100%" y2="100%">
      <stop offset="0%" style="stop-color:#d4a574"/>
      <stop offset="100%" style="stop-color:#c4956a"/>
    </linearGradient>
  </defs>
  <!-- Background -->
  <rect width="1200" height="630" fill="url(#bgGradient)"/>
  <!-- Subtle grid pattern -->
  <g opacity="0.03">
    <line x1="0" y1="0" x2="0" y2="630" stroke="#d4a574" stroke-width="1"/>
    <line x1="100" y1="0" x2="100" y2="630" stroke="#d4a574" stroke-width="1"/>
    <line x1="200" y1="0" x2="200" y2="630" stroke="#d4a574" stroke-width="1"/>
    <line x1="300" y1="0" x2="300" y2="630" stroke="#d4a574" stroke-width="1"/>
    <line x1="400" y1="0" x2="400" y2="630" stroke="#d4a574" stroke-width="1"/>
    <line x1="500" y1="0" x2="500" y2="630" stroke="#d4a574" stroke-width="1"/>
    <line x1="600" y1="0" x2="600" y2="630" stroke="#d4a574" stroke-width="1"/>
    <line x1="700" y1="0" x2="700" y2="630" stroke="#d4a574" stroke-width="1"/>
    <line x1="800" y1="0" x2="800" y2="630" stroke="#d4a574" stroke-width="1"/>
    <line x1="900" y1="0" x2="900" y2="630" stroke="#d4a574" stroke-width="1"/>
    <line x1="1000" y1="0" x2="1000" y2="630" stroke="#d4a574" stroke-width="1"/>
    <line x1="1100" y1="0" x2="1100" y2="630" stroke="#d4a574" stroke-width="1"/>
    <line x1="1200" y1="0" x2="1200" y2="630" stroke="#d4a574" stroke-width="1"/>
  </g>
  <!-- Lazuli wordmark - Clash Display Semibold, converted to paths, centered at x=600 -->
  <g fill="url(#textGradient)" transform="translate(380, 220)">
    <!-- L -->
    <path d="M0 0h17v65h41v14.5H0V0z"/>
    <!-- a -->
    <path d="M77.5 24.2c7.4-5.8 15.8-8.5 25-8.5 8.4 0 15 2.4 19.8 7.1 4.7 4.7 7.1 11.6 7.1 20.5V80h-15.8v-7.4c-4.7 5.8-11.8 8.7-21.1 8.7-7.4 0-13.2-1.8-17.6-5.8-4.5-3.9-6.6-9-6.6-15.3 0-6.6 2.4-11.8 7.4-15.5 5-3.7 11.8-5.5 20.8-5.5h16.6v-2.1c0-4.2-1.3-7.4-3.7-9.5-2.6-2.1-6.3-3.2-11.1-3.2-6.3 0-12.6 2.1-18.9 6.3l-7.1-10.8h5.2zm34.7 35v-6.1h-14.5c-7.9 0-11.8 2.6-11.8 8.2 0 2.6 1.1 4.7 3.4 6.3 2.4 1.6 5.3 2.4 9.2 2.4 5.3 0 9.7-1.6 13.7-4.7v-6.1z"/>
    <!-- z -->
    <path d="M142 66.5l30.3-36.8h-28.9V16h50v13.2l-30.3 36.8h31.6V80H142v-13.5z"/>
    <!-- u -->
    <path d="M208 16h16.3v38.2c0 5.3 1.3 9.2 3.7 11.6 2.6 2.6 6.1 3.9 10.8 3.9 4.7 0 8.4-1.3 11.1-3.9 2.6-2.6 3.9-6.6 3.9-11.6V16h16.3v39.5c0 9.2-2.9 16.3-8.4 21.6-5.8 5.3-13.2 7.9-22.6 7.9-9.5 0-17.1-2.6-22.6-7.9-5.5-5.3-8.4-12.4-8.4-21.6V16z"/>
    <!-- l -->
    <path d="M287 0h16.3v79.5H287V0z"/>
    <!-- i -->
    <path d="M321 0h17.1v15.8H321V0zm0.3 15.8h16.3v63.7h-16.3V15.8z"/>
  </g>
  <!-- Tagline - keeping monospace for contrast -->
  <text x="600" y="360" font-family="ui-monospace, SFMono-Regular, Menlo, Monaco, Consolas, monospace" font-size="18" fill="#a8a29e" text-anchor="middle" letter-spacing="4">MARKET INTELLIGENCE</text>
  <!-- Border accent -->
  <rect x="20" y="20" width="1160" height="590" fill="none" stroke="#d4a574" stroke-width="1" opacity="0.1" rx="8"/>
</svg>
