<svg xmlns="http://www.w3.org/2000/svg" viewBox="0 0 1200 630">
  <defs>
    <style>
      @font-face {
        font-family: 'Clash Display';
        src: url('/fonts/ClashDisplay-Variable.woff2') format('woff2');
        font-weight: 200 700;
        font-style: normal;
      }
    </style>
    <linearGradient id="bgGradient" x1="0%" y1="0%" x2="100%" y2="100%">
      <stop offset="0%" style="stop-color:#0f0d0b"/>
      <stop offset="100%" style="stop-color:#1a1612"/>
    </linearGradient>
    <linearGradient id="textGradient" x1="0%" y1="0%" x2="100%" y2="100%">
      <stop offset="0%" style="stop-color:#4169E1"/>
      <stop offset="100%" style="stop-color:#1E3A8A"/>
    </linearGradient>
  </defs>
  <!-- Background -->
  <rect width="1200" height="630" fill="url(#bgGradient)"/>
  <!-- Subtle grid pattern -->
  <g opacity="0.03">
    <line x1="0" y1="0" x2="0" y2="630" stroke="#4169E1" stroke-width="1"/>
    <line x1="100" y1="0" x2="100" y2="630" stroke="#4169E1" stroke-width="1"/>
    <line x1="200" y1="0" x2="200" y2="630" stroke="#4169E1" stroke-width="1"/>
    <line x1="300" y1="0" x2="300" y2="630" stroke="#4169E1" stroke-width="1"/>
    <line x1="400" y1="0" x2="400" y2="630" stroke="#4169E1" stroke-width="1"/>
    <line x1="500" y1="0" x2="500" y2="630" stroke="#4169E1" stroke-width="1"/>
    <line x1="600" y1="0" x2="600" y2="630" stroke="#4169E1" stroke-width="1"/>
    <line x1="700" y1="0" x2="700" y2="630" stroke="#4169E1" stroke-width="1"/>
    <line x1="800" y1="0" x2="800" y2="630" stroke="#4169E1" stroke-width="1"/>
    <line x1="900" y1="0" x2="900" y2="630" stroke="#4169E1" stroke-width="1"/>
    <line x1="1000" y1="0" x2="1000" y2="630" stroke="#4169E1" stroke-width="1"/>
    <line x1="1100" y1="0" x2="1100" y2="630" stroke="#4169E1" stroke-width="1"/>
    <line x1="1200" y1="0" x2="1200" y2="630" stroke="#4169E1" stroke-width="1"/>
  </g>
  <!-- Lazuli wordmark -->
  <text x="600" y="300" font-family="'Clash Display', system-ui, sans-serif" font-size="96" font-weight="600" fill="url(#textGradient)" text-anchor="middle" letter-spacing="-3">Lazuli</text>
  <!-- Tagline -->
  <text x="600" y="370" font-family="'Fira Code', ui-monospace, monospace" font-size="18" fill="#a8a29e" text-anchor="middle" letter-spacing="4">COMMAND THE HIDDEN MARKETS</text>
  <!-- Border accent -->
  <rect x="20" y="20" width="1160" height="590" fill="none" stroke="#4169E1" stroke-width="1" opacity="0.1" rx="8"/>
</svg>
